<?xml version="1.0" encoding="iso-8859-1"?>
<!-- Generator: Adobe Illustrator 19.1.0, SVG Export Plug-In . SVG Version: 6.00 Build 0)  -->
<svg version="1.1" id="Capa_1" xmlns="http://www.w3.org/2000/svg" xmlns:xlink="http://www.w3.org/1999/xlink" x="0px" y="0px"
	 viewBox="0 0 31.177 31.177" style="enable-background:new 0 0 31.177 31.177;" xml:space="preserve">
<g>
	<g>
		<path style="fill:#010002;" d="M30.23,1.775H0.947c-0.49,0-0.888-0.397-0.888-0.888C0.059,0.398,0.456,0,0.947,0H30.23
			c0.49,0,0.888,0.398,0.888,0.888C31.118,1.378,30.72,1.775,30.23,1.775z"/>
	</g>
	<g>
		<path style="fill:#010002;" d="M30.23,9.126H0.947c-0.49,0-0.888-0.397-0.888-0.888c0-0.49,0.397-0.888,0.888-0.888H30.23
			c0.49,0,0.888,0.398,0.888,0.888C31.118,8.729,30.72,9.126,30.23,9.126z"/>
	</g>
	<g>
		<path style="fill:#010002;" d="M30.23,16.477H0.947c-0.49,0-0.888-0.398-0.888-0.888s0.397-0.888,0.888-0.888H30.23
			c0.49,0,0.888,0.398,0.888,0.888S30.72,16.477,30.23,16.477z"/>
	</g>
	<g>
		<path style="fill:#010002;" d="M30.23,23.826H0.991c-0.49,0-0.887-0.396-0.887-0.887s0.397-0.888,0.887-0.888H30.23
			c0.49,0,0.888,0.398,0.888,0.888S30.72,23.826,30.23,23.826z"/>
	</g>
	<g>
		<path style="fill:#010002;" d="M30.23,31.177H0.947c-0.49,0-0.888-0.396-0.888-0.887c0-0.49,0.397-0.888,0.888-0.888H30.23
			c0.49,0,0.888,0.397,0.888,0.888C31.118,30.78,30.72,31.177,30.23,31.177z"/>
	</g>
</g>
<g>
</g>
<g>
</g>
<g>
</g>
<g>
</g>
<g>
</g>
<g>
</g>
<g>
</g>
<g>
</g>
<g>
</g>
<g>
</g>
<g>
</g>
<g>
</g>
<g>
</g>
<g>
</g>
<g>
</g>
</svg>
